<svg width="17" height="16" viewBox="0 0 17 16" fill="none" xmlns="http://www.w3.org/2000/svg">
<path d="M0.222539 6.16432C0.277501 5.9946 0.423723 5.87091 0.599763 5.84529L5.54518 5.12451L7.75689 0.629933C7.8356 0.469933 7.99808 0.368652 8.17596 0.368652C8.35387 0.368652 8.51633 0.469933 8.59506 0.629933L10.8069 5.12451L15.7522 5.84529C15.9282 5.87091 16.0745 5.9946 16.1294 6.16429C16.1844 6.334 16.1386 6.52028 16.0112 6.64481L12.4328 10.1434L13.2774 15.0834C13.3075 15.2593 13.2354 15.437 13.0915 15.5419C13.0101 15.6012 12.9136 15.6314 12.8167 15.6314C12.7423 15.6314 12.6677 15.6136 12.5993 15.5776L8.17599 13.2451L3.75284 15.5775C3.59534 15.6606 3.40456 15.6467 3.26065 15.5419C3.11673 15.437 3.0446 15.2593 3.07467 15.0834L3.91957 10.1434L0.340782 6.64478C0.21341 6.52028 0.167515 6.334 0.222539 6.16432Z" fill="#FFB800"/>
</svg>
